<svg width="296" height="46" viewBox="0 0 296 46" fill="none" xmlns="http://www.w3.org/2000/svg">
<path d="M55.4651 15.4778C56.4361 13.594 57.7616 12.1454 59.4429 11.1304C61.1235 10.1161 62.9929 9.60896 65.0516 9.60896C66.617 9.60896 68.1096 9.94969 69.5294 10.6304C70.9493 11.3119 72.0802 12.2174 72.9209 13.3476V1.9126H79.0944V34.0862H72.9209V30.5211C72.1667 31.7097 71.1092 32.6663 69.747 33.3903C68.384 34.1143 66.805 34.4773 65.0077 34.4773C62.9784 34.4773 61.1235 33.9558 59.4429 32.9127C57.7616 31.8689 56.4354 30.3986 55.4651 28.4998C54.4933 26.6016 54.0085 24.4203 54.0085 21.9567C54.0085 19.5211 54.4933 17.3622 55.4651 15.4778ZM72.0954 18.2382C71.5155 17.1807 70.7324 16.3688 69.7477 15.8041C68.7615 15.2386 67.704 14.9562 66.5738 14.9562C65.4435 14.9562 64.3997 15.2321 63.4438 15.7825C62.4872 16.3335 61.7113 17.1375 61.1177 18.1957C60.5234 19.2539 60.2267 20.5073 60.2267 21.9567C60.2267 23.4061 60.5234 24.6739 61.1177 25.7609C61.7113 26.848 62.4944 27.6814 63.4654 28.2613C64.4365 28.8412 65.4723 29.1308 66.5738 29.1308C67.704 29.1308 68.7622 28.8477 69.7477 28.2829C70.7324 27.7174 71.5155 26.9063 72.0954 25.8481C72.6752 24.7899 72.9648 23.522 72.9648 22.0439C72.9648 20.5657 72.6745 19.2971 72.0954 18.2382Z" fill="white"/>
<path d="M85.4639 6.10796C84.7536 5.42721 84.3984 4.57935 84.3984 3.56436C84.3984 2.55008 84.7529 1.70294 85.4639 1.02075C86.1734 0.340732 87.0652 0 88.1378 0C89.2097 0 90.1008 0.340732 90.8118 1.02147C91.5214 1.70294 91.8772 2.5508 91.8772 3.56508C91.8772 4.58007 91.5221 5.42793 90.8118 6.10868C90.1008 6.79014 89.2097 7.13015 88.1378 7.13015C87.0652 7.13015 86.1734 6.78942 85.4639 6.10796ZM91.1381 9.99936V34.0861H85.0511V9.99936H91.1381Z" fill="white"/>
<path d="M111.311 10.6736C112.673 11.3839 113.745 12.3038 114.528 13.4348V10.0001H120.659V34.2605C120.659 36.4921 120.208 38.4847 119.311 40.2388C118.412 41.9921 117.064 43.3839 115.267 44.4125C113.469 45.4412 111.296 45.9563 108.746 45.9563C105.325 45.9563 102.521 45.1588 100.333 43.5647C98.1437 41.9705 96.9047 39.7965 96.6158 37.0432H102.659C102.977 38.1447 103.665 39.0213 104.724 39.6733C105.782 40.3259 107.065 40.6515 108.572 40.6515C110.339 40.6515 111.774 40.1221 112.876 39.0646C113.977 38.0063 114.528 36.405 114.528 34.2605V30.5218C113.745 31.652 112.665 32.5943 111.289 33.3478C109.912 34.1013 108.339 34.478 106.571 34.478C104.542 34.478 102.687 33.9565 101.006 32.9134C99.3251 31.8696 97.9989 30.3993 97.0286 28.5004C96.0568 26.6023 95.572 24.421 95.572 21.9574C95.572 19.5226 96.0568 17.3636 97.0286 15.4792C97.9996 13.5954 99.3179 12.1468 100.985 11.1318C102.651 10.1175 104.513 9.61036 106.571 9.61036C108.369 9.6082 109.948 9.96406 111.311 10.6736ZM113.659 18.2381C113.079 17.1807 112.296 16.3688 111.311 15.804C110.325 15.2386 109.268 14.9562 108.137 14.9562C107.007 14.9562 105.963 15.2321 105.007 15.7824C104.051 16.3335 103.275 17.1374 102.681 18.1956C102.087 19.2539 101.79 20.5073 101.79 21.9567C101.79 23.406 102.087 24.6739 102.681 25.7609C103.275 26.8479 104.058 27.6814 105.029 28.2613C106 28.8412 107.036 29.1308 108.137 29.1308C109.268 29.1308 110.326 28.8477 111.311 28.2829C112.296 27.7174 113.079 26.9063 113.659 25.8481C114.239 24.7899 114.528 23.522 114.528 22.0438C114.528 20.5656 114.239 19.2971 113.659 18.2381Z" fill="white"/>
<path d="M127.028 6.10796C126.318 5.42721 125.963 4.57935 125.963 3.56436C125.963 2.55008 126.317 1.70294 127.028 1.02075C127.738 0.340732 128.629 0 129.702 0C130.774 0 131.665 0.340732 132.376 1.02147C133.086 1.70294 133.441 2.5508 133.441 3.56508C133.441 4.58007 133.086 5.42793 132.376 6.10868C131.665 6.79014 130.774 7.13015 129.702 7.13015C128.629 7.13015 127.738 6.78942 127.028 6.10796ZM132.702 9.99936V34.0861H126.615V9.99936H132.702Z" fill="white"/>
<path d="M145.788 14.9995V26.6513C145.788 27.4632 145.984 28.0503 146.375 28.4119C146.766 28.775 147.425 28.955 148.353 28.955H151.179V34.0855H147.352C142.222 34.0855 139.657 31.593 139.657 26.6074V14.9995H136.788V9.99942H139.657V4.04346H145.787V10.0001H151.178V15.0002L145.788 14.9995Z" fill="white"/>
<path d="M155.462 15.4777C156.433 13.5939 157.751 12.1453 159.418 11.1303C161.084 10.116 162.946 9.60889 165.004 9.60889C166.801 9.60889 168.374 9.97123 169.722 10.6959C171.07 11.4206 172.149 12.3333 172.961 13.4347V10H179.091V34.0868H172.961V30.565C172.178 31.6952 171.098 32.6302 169.722 33.3693C168.344 34.1084 166.758 34.478 164.961 34.478C162.932 34.478 161.084 33.9564 159.418 32.9133C157.751 31.8695 156.432 30.3993 155.462 28.5004C154.49 26.6022 154.005 24.421 154.005 21.9573C154.005 19.5211 154.49 17.3622 155.462 15.4777ZM172.091 18.2381C171.511 17.1806 170.728 16.3688 169.743 15.804C168.757 15.2385 167.7 14.9561 166.57 14.9561C165.439 14.9561 164.395 15.232 163.44 15.7824C162.483 16.3335 161.707 17.1374 161.113 18.1956C160.519 19.2538 160.222 20.5073 160.222 21.9566C160.222 23.406 160.519 24.6738 161.113 25.7609C161.707 26.8479 162.49 27.6814 163.461 28.2612C164.432 28.8411 165.468 29.1307 166.57 29.1307C167.7 29.1307 168.758 28.8476 169.743 28.2829C170.728 27.7174 171.511 26.9062 172.091 25.848C172.671 24.7898 172.961 23.522 172.961 22.0438C172.961 20.5656 172.671 19.297 172.091 18.2381Z" fill="white"/>
<path d="M191.135 1.9126V34.0862H185.048V1.9126H191.135Z" fill="white"/>
<path d="M207.177 13.5212H202.178V34.0862H198.221V13.5212H195.134V10.2609H198.221V8.56514C198.221 5.89908 198.909 3.94978 200.286 2.71724C201.663 1.48542 203.873 0.869507 206.916 0.869507V4.17381C205.177 4.17381 203.953 4.51454 203.242 5.19529C202.532 5.87675 202.177 6.99908 202.177 8.56442V10.2602H207.176V13.5212H207.177Z" fill="white"/>
<path d="M215.742 1.9126V34.0862H211.786V1.9126H215.742Z" fill="white"/>
<path d="M222.48 15.6737C223.465 13.8332 224.821 12.4061 226.545 11.3912C228.27 10.3769 230.191 9.86975 232.306 9.86975C234.393 9.86975 236.204 10.32 237.741 11.2175C239.277 12.1166 240.422 13.2468 241.176 14.609V10.2616H245.176V34.0869H241.176V29.6524C240.394 31.0441 239.227 32.196 237.677 33.1087C236.126 34.0221 234.322 34.4781 232.264 34.4781C230.147 34.4781 228.234 33.9565 226.525 32.9134C224.814 31.8696 223.466 30.4066 222.481 28.5221C221.496 26.6384 221.003 24.4938 221.003 22.0878C221.002 19.6516 221.495 17.5142 222.48 15.6737ZM240.089 17.4343C239.364 16.1009 238.386 15.0794 237.154 14.3691C235.922 13.6589 234.567 13.3037 233.089 13.3037C231.611 13.3037 230.263 13.6517 229.046 14.3475C227.829 15.0427 226.857 16.0584 226.133 17.3911C225.408 18.7245 225.046 20.2898 225.046 22.0871C225.046 23.9132 225.408 25.5002 226.133 26.848C226.857 28.1958 227.828 29.2245 229.046 29.9347C230.263 30.645 231.612 31.0002 233.089 31.0002C234.567 31.0002 235.922 30.6457 237.154 29.9347C238.386 29.2245 239.364 28.1951 240.089 26.848C240.814 25.5002 241.176 23.9284 241.176 22.1303C241.175 20.333 240.813 18.7677 240.089 17.4343Z" fill="white"/>
<path d="M265.176 34.0862L255.828 23.5645V34.0862H251.871V1.9126H255.828V20.8257L265.001 10.2609H270.522L259.305 22.1296L270.566 34.0862H265.176Z" fill="white"/>
<path d="M295.87 23.6517H276.826C276.971 25.9994 277.775 27.8334 279.239 29.1517C280.702 30.4707 282.479 31.1298 284.566 31.1298C286.276 31.1298 287.703 30.7314 288.848 29.934C289.993 29.1373 290.797 28.0719 291.261 26.7385H295.522C294.884 29.0285 293.609 30.8906 291.696 32.3249C289.783 33.7591 287.406 34.4766 284.566 34.4766C282.304 34.4766 280.284 33.9702 278.501 32.9552C276.718 31.9409 275.319 30.4988 274.306 28.6294C273.291 26.7601 272.784 24.5932 272.784 22.1296C272.784 19.6667 273.277 17.507 274.262 15.6514C275.247 13.7964 276.632 12.3687 278.415 11.3688C280.197 10.3689 282.247 9.86829 284.566 9.86829C286.828 9.86829 288.827 10.3617 290.566 11.3465C292.305 12.3319 293.645 13.6876 294.588 15.4115C295.53 17.1367 296.001 19.0853 296.001 21.2594C296 22.0143 295.957 22.811 295.87 23.6517ZM290.913 16.5432C290.246 15.4561 289.34 14.6299 288.196 14.0651C287.051 13.4996 285.783 13.2173 284.392 13.2173C282.392 13.2173 280.689 13.8548 279.283 15.1305C277.877 16.4063 277.073 18.1741 276.87 20.4346H291.913C291.913 18.9276 291.58 17.6302 290.913 16.5432Z" fill="white"/>
<path d="M38.9968 45.362H5.77227C2.5897 45.362 0 42.7723 0 39.5897V6.36588C0 3.1826 2.5897 0.592896 5.77227 0.592896H38.9968C42.1794 0.592896 44.7691 3.1826 44.7691 6.36588V39.589C44.7691 42.7723 42.1794 45.362 38.9968 45.362ZM5.77227 2.14024C3.44261 2.14024 1.54734 4.03551 1.54734 6.36588V39.589C1.54734 41.9194 3.44261 43.8147 5.77227 43.8147H38.9968C41.3265 43.8147 43.2218 41.9194 43.2218 39.589V6.36588C43.2218 4.03551 41.3265 2.14024 38.9968 2.14024H5.77227Z" fill="white"/>
<path d="M33.7375 14.7495C32.3731 12.3665 30.4397 10.5382 27.9371 9.26392C27.023 8.79856 26.0526 8.41893 25.0283 8.12358V12.7202C26.0073 13.1993 26.8645 13.8231 27.6 14.5917C29.5486 16.6304 30.5225 19.4628 30.5225 23.0898C30.5225 26.6866 29.5486 29.4744 27.6 31.4525C26.8645 32.1988 26.0073 32.8047 25.0283 33.2693V37.8494C26.0526 37.5612 27.0223 37.1902 27.9371 36.7357C30.4397 35.4923 32.3731 33.7008 33.7375 31.3625C35.1011 29.0242 35.7833 26.2666 35.7833 23.0891C35.7833 19.9138 35.1011 17.1332 33.7375 14.7495ZM10.2414 7.35352C9.54841 7.35352 8.98581 7.91324 8.98581 8.60335V38.6021H19.1919C19.3778 38.6021 19.5615 38.5993 19.7444 38.5957V34.4111C19.5622 34.4161 19.3785 34.4204 19.1919 34.4204H14.1112V11.5345H19.1919C19.3785 11.5345 19.5622 11.5388 19.7444 11.5446V7.36C19.5615 7.35568 19.3778 7.35352 19.1919 7.35352H10.2414Z" fill="white"/>
</svg>
